<?xml version="1.0" standalone="no"?>
<!DOCTYPE svg PUBLIC "-//W3C//DTD SVG 20010904//EN"
 "http://www.w3.org/TR/2001/REC-SVG-20010904/DTD/svg10.dtd">
<svg version="1.0" xmlns="http://www.w3.org/2000/svg"
 width="1894.000000pt" height="1894.000000pt" viewBox="0 0 1894.000000 1894.000000"
 preserveAspectRatio="xMidYMid meet">
<metadata>
Created by potrace 1.14, written by Peter Selinger 2001-2017
</metadata>
<g transform="translate(0.000000,1894.000000) scale(0.100000,-0.100000)"
fill="#000000" stroke="none">
<path d="M2479 18936 c-2 -2 -38 -6 -79 -10 -180 -15 -409 -64 -584 -125 -175
-61 -368 -149 -481 -219 -27 -18 -61 -37 -75 -42 -13 -6 -27 -14 -30 -18 -3
-4 -30 -23 -60 -42 -159 -101 -410 -329 -557 -508 -298 -361 -512 -832 -579
-1272 -3 -19 -7 -46 -10 -60 -2 -14 -7 -56 -11 -95 -10 -93 -10 -14084 0
-14155 8 -57 24 -162 33 -215 3 -16 12 -59 20 -95 9 -36 17 -74 20 -85 4 -20
11 -42 60 -190 49 -148 167 -401 233 -500 15 -22 30 -47 33 -55 7 -19 158
-229 195 -271 117 -135 223 -242 313 -319 29 -25 57 -50 64 -55 34 -32 146
-112 242 -175 228 -149 611 -311 834 -354 14 -3 57 -12 95 -20 39 -8 93 -18
120 -21 28 -4 61 -8 75 -11 92 -16 939 -18 7100 -18 6184 0 7042 2 7130 18 14
3 45 7 70 10 434 55 909 262 1281 557 187 148 386 362 531 569 218 312 383
724 438 1095 7 44 14 89 16 100 2 11 7 81 11 155 9 177 9 13815 0 13945 -8
116 -31 295 -43 337 -3 9 -6 25 -8 35 -60 303 -205 645 -392 924 -371 555
-932 951 -1569 1108 -66 16 -136 32 -155 35 -19 3 -46 8 -59 11 -13 2 -49 7
-80 11 -31 3 -78 10 -106 15 -47 7 -14027 13 -14036 5z"/>
</g>
</svg>
